<?xml version="1.0" encoding="iso-8859-1"?>
<!-- Generator: Adobe Illustrator 19.0.0, SVG Export Plug-In . SVG Version: 6.00 Build 0)  -->
<svg version="1.1" id="Capa_1" xmlns="http://www.w3.org/2000/svg" xmlns:xlink="http://www.w3.org/1999/xlink" x="0px" y="0px"
	 viewBox="0 0 464.883 464.883" style="enable-background:new 0 0 464.883 464.883;" xml:space="preserve">
<linearGradient id="SVGID_1_" gradientUnits="userSpaceOnUse" x1="232.4415" y1="462.736" x2="232.4415" y2="-0.492" gradientTransform="matrix(1 0 0 -1 0 466.896)">
	<stop  offset="0" style="stop-color:#00EFD1"/>
	<stop  offset="1" style="stop-color:#00ACEA"/>
</linearGradient>
<path style="fill:url(#SVGID_1_);" d="M396.409,212.577V95.33c0-27.866-22.819-50.882-50.687-50.882h-6.313V36.5
	c0-19.882-16.118-36-36-36s-36,16.118-36,36v7.948h-132V36.5c0-20.158-16.342-36.5-36.5-36.5s-36.5,16.342-36.5,36.5v7.948h-5.455
	c-27.867,0-50.545,23.016-50.545,50.882v269.224c0,27.867,22.678,50.894,50.545,50.894h158.594
	c26.147,31.276,64.795,49.375,105.561,49.435c75.7,0,137.365-61.677,137.365-137.379
	C458.476,279.523,433.409,237.131,396.409,212.577L396.409,212.577z M287.409,36.5c-0.154-8.71,6.781-15.896,15.491-16.05
	c0.14-0.002,0.28-0.003,0.42-0.002c8.792-0.093,15.996,6.959,16.089,15.752c0.001,0.1,0.001,0.2,0,0.3v38.948h-32V36.5z
	 M82.409,36.5c0.095-8.961,7.437-16.148,16.398-16.053c0.015,0,0.031,0,0.046,0.001c8.994,0,16.556,7.059,16.556,16.052v38.948h-33
	V36.5z M56.954,64.448h5.455v21.416c0,5.522,4.612,9.584,10.135,9.584h52.62c5.522,0,10.245-4.062,10.245-9.584V64.448h132v21.416
	c-0.148,5.145,3.903,9.436,9.048,9.584c0.184,0.005,0.368,0.005,0.552,0h52.62c5.225,0.174,9.602-3.921,9.776-9.146
	c0.005-0.146,0.006-0.292,0.004-0.438V64.448h6.313c16.953,0.171,30.623,13.929,30.687,30.882v32.118h-350V95.33
	C26.409,78.491,40.115,64.448,56.954,64.448z M56.954,395.448c-16.839,0-30.545-14.055-30.545-30.894V147.448h350v54.254
	c-17.407-7.643-36.213-11.585-55.224-11.578c-75.7,0-137.327,61.767-137.327,137.469c-0.038,23.783,6.109,47.166,17.839,67.855
	L56.954,395.448z M321.109,444.705c-64.778,0-117.291-52.513-117.291-117.291s52.513-117.291,117.291-117.291
	S438.4,262.636,438.4,327.414c0,0,0,0.001,0,0.001C438.327,392.162,385.857,444.632,321.109,444.705z"/>
<linearGradient id="SVGID_2_" gradientUnits="userSpaceOnUse" x1="341.314" y1="462.736" x2="341.314" y2="-0.492" gradientTransform="matrix(1 0 0 -1 0 466.896)">
	<stop  offset="0" style="stop-color:#00EFD1"/>
	<stop  offset="1" style="stop-color:#00ACEA"/>
</linearGradient>
<path style="fill:url(#SVGID_2_);" d="M368.219,327.448h-43.81v-60.17c0-5.523-4.477-10-10-10s-10,4.477-10,10v70.16
	c0.088,5.561,4.626,10.02,10.188,10.01h53.622c5.523,0,10-4.477,10-10S373.742,327.448,368.219,327.448L368.219,327.448z"/>
<g>
</g>
<g>
</g>
<g>
</g>
<g>
</g>
<g>
</g>
<g>
</g>
<g>
</g>
<g>
</g>
<g>
</g>
<g>
</g>
<g>
</g>
<g>
</g>
<g>
</g>
<g>
</g>
<g>
</g>
</svg>
