<svg id="Layer_1" data-name="Layer 1" xmlns="http://www.w3.org/2000/svg" viewBox="0 0 50 50"><defs><style>.cls-1{fill:#5455d6;}.cls-2{fill:#fff;}</style></defs><title>pdfHover</title><circle class="cls-1" cx="25" cy="25" r="25"/><g id="_Group_" data-name="&lt;Group&gt;"><path id="_Compound_Path_" data-name="&lt;Compound Path&gt;" class="cls-2" d="M37,27.08a42.07,42.07,0,0,0-5.38.48C28.21,24,27.24,22,27,21.41A24,24,0,0,0,28.49,14,5.43,5.43,0,0,0,27.32,9.9a3,3,0,0,0-2.16-1c-1,0-2.76.52-2.76,4A18.68,18.68,0,0,0,24.2,20,71.17,71.17,0,0,1,19.46,31c-8.26,3.11-8.91,6.12-8.91,7,0,1.53,1.09,2.44,2.92,2.44,4.44,0,8.5-7.45,9.17-8.75a47.3,47.3,0,0,1,8.45-2.22,13,13,0,0,0,8.12,3.71c1.11,0,3.72,0,3.72-2.67C42.93,28,39.74,27.08,37,27.08Zm-.22,1.76c2.4,0,3,.8,3,1.22,0,.26-.1,1.12-1.39,1.12a9.84,9.84,0,0,1-5.1-2.11A26,26,0,0,1,36.79,28.84ZM25,10.65a.52.52,0,0,1,.48.24c.69.95.14,4.08-.54,6.53-.66-2.1-1.15-5.32-.46-6.45A.57.57,0,0,1,25,10.65ZM23.86,29.39c.87-1.75,1.85-4.31,2.38-5.76A27.82,27.82,0,0,0,29.55,28C27,28.5,25,29,23.86,29.39ZM12.28,38.18a.46.46,0,0,1,0-.38c.09-.36.78-2.15,5.78-4.38A23.32,23.32,0,0,1,15,37.36a3.69,3.69,0,0,1-2,1.22A.87.87,0,0,1,12.28,38.18Z"/></g></svg>